<?xml version="1.0" standalone="no"?>
<!DOCTYPE svg PUBLIC "-//W3C//DTD SVG 1.1//EN" "http://www.w3.org/Graphics/SVG/1.1/DTD/svg11.dtd" >
<svg>
<metadata>
Created by FontForge 20110222 at Mon Jan 21 15:51:54 2013
 By www-data
(c)  2012 Bahij Virtual Academy. All rights reserved.
</metadata>
<defs>
<font id="BahijMyriadArabic" horiz-adv-x="831" >
  <font-face 
    font-family="Bahij Myriad Arabic"
    font-weight="400"
    font-stretch="normal"
    units-per-em="2048"
    panose-1="2 4 5 3 5 2 1 2 2 3"
    ascent="1368"
    descent="-680"
    x-height="785"
    cap-height="1093"
    bbox="-88 -629 1822 1622"
    underline-thickness="20"
    underline-position="-45"
    unicode-range="U+0020-FEF3"
  />
    <missing-glyph />
    <glyph glyph-name="uniFEB0" unicode="&#x632;" horiz-adv-x="763" arabic-form="final" 
d="M312 729q0 88 85 88q84 0 84 -88t-87 -88q-82 0 -82 88zM509 459q50 -103 88 -201q54 -111 166 -111q86 0 86 -73q0 -74 -86 -74q-75 0 -115 28q-4 -60 -7 -75q-29 -166 -151 -267q-108 -89 -233 -89q-152 0 -235 87l14 105q91 -55 220 -55q106 0 192 82q90 89 96 222
q-10 96 -154 361z" />
    <glyph glyph-name="uniFED3" unicode="&#x641;" horiz-adv-x="705" arabic-form="initial" 
d="M227 1094q0 37 24 63q24 24 61 24q84 0 84 -87q0 -89 -84 -89q-85 0 -85 89zM-1 0q-83 0 -83 76q0 71 83 71h109q285 0 382 48q8 40 8 54q-210 -9 -320 77q-94 71 -94 185q0 116 85 204q83 87 189 87q101 0 175 -106q83 -119 83 -308q0 -180 -42 -283
q-146 -105 -482 -105h-93zM272 411q85 -42 234 -39q8 98 -34 192q-48 111 -133 111q-64 0 -108 -46q-42 -43 -42 -103q0 -73 83 -115z" />
    <glyph glyph-name="uniFEF3" unicode="&#x64a;" horiz-adv-x="463" arabic-form="initial" 
d="M-1 0q-81 0 -81 76q0 71 81 71h32q173 0 229 38q2 10 2 31q-6 170 -126 376l119 46q115 -211 115 -434q0 -75 -18 -124q-93 -80 -329 -80h-24zM397 -319q0 -87 -83 -87q-80 0 -80 87q0 85 80 85q83 0 83 -85zM180 -319q0 -87 -84 -87q-83 0 -83 87q0 85 83 85
q84 0 84 -85z" />
    <glyph glyph-name="uniFB61" unicode="&#x67a;" horiz-adv-x="508" arabic-form="medial" 
d="M-88 74q0 72 84 72q123 0 176 71q40 53 55 176l95 9q-3 -26 -3 -55q0 -200 189 -201q87 0 87 -72q0 -74 -87 -74q-200 0 -249 162q-60 -162 -264 -162q-83 0 -83 74zM256 770q-86 0 -86 80q0 82 86 82t86 -82q0 -80 -86 -80zM256 550q-86 0 -86 83q0 82 86 82t86 -82
q0 -83 -86 -83z" />
    <glyph glyph-name="uni06B6.init" unicode="&#x6b6;" horiz-adv-x="461" 
d="M-84 76q0 71 83 71q198 0 187 210l-38 810l122 10l38 -822q19 -355 -309 -355q-83 0 -83 76zM118 1352q0 81 76 81q79 0 79 -81q0 -80 -79 -80q-76 0 -76 80z" />
    <glyph glyph-name="space" unicode=" " horiz-adv-x="400" 
 />
    <glyph glyph-name="afii57441" unicode="&#x641;" horiz-adv-x="1460" 
d="M980 1094q0 37 23 63q25 24 61 24q84 0 84 -87q0 -89 -84 -89t-84 89zM211 611q-26 -103 -26 -170q0 -331 467 -331q391 0 598 93q6 23 10 55q-220 -13 -331 71q-89 68 -89 182t84 204q84 87 187 87q105 0 177 -106q84 -122 84 -338q0 -140 -41 -245q-220 -147 -690 -147
q-315 0 -456 143q-105 106 -105 282q0 122 43 238zM1030 414q87 -38 238 -32q-4 128 -47 205q-47 88 -129 88q-62 0 -107 -46q-44 -43 -44 -103q0 -73 89 -112z" />
    <glyph glyph-name="uni06B6" unicode="&#x6b6;" horiz-adv-x="1062" 
d="M134 393l94 -14q-28 -98 -28 -193q0 -144 92 -216q75 -59 189 -59q219 0 297 138q14 23 11 84l-42 1034l122 10l42 -1019q2 -96 -26 -151q-54 -110 -175 -174q-113 -60 -238 -60q-182 0 -286 102q-102 100 -102 271q0 120 50 247zM729 1352q0 81 76 81q80 0 80 -81
q0 -80 -80 -80q-76 0 -76 80z" />
    <glyph glyph-name="uni0765.init" horiz-adv-x="741" 
d="M0 0q-88 0 -88 74q0 73 89 73q96 -2 146 143q52 149 107 210q59 64 149 64q116 0 195 -122q70 -108 70 -236q0 -91 -54 -148q-53 -58 -131 -58q-139 0 -295 120q-60 -120 -185 -120h-3zM566 211q0 76 -51 149q-54 78 -119 78q-97 0 -155 -186q119 -109 248 -109
q77 0 77 68zM346 808q0 81 77 81q79 0 79 -81q0 -80 -79 -80q-77 0 -77 80z" />
    <glyph glyph-name="uni0765.medi" horiz-adv-x="802" 
d="M7 147q54 3 82 31q29 29 58 112q53 141 109 197q56 58 147 58q96 0 170 -87q65 -78 88 -189q53 -122 141 -122q86 0 86 -73q0 -74 -86 -74q-100 0 -155 81q-51 -101 -161 -101q-143 0 -300 121q-66 -101 -183 -101h-3q-88 0 -88 73q0 74 88 74h7zM566 192q0 78 -49 149
q-51 77 -121 77q-101 0 -158 -186q118 -109 251 -109q77 0 77 69zM335 808q0 81 77 81q78 0 78 -81q0 -80 -78 -80q-77 0 -77 80z" />
    <glyph glyph-name="uni0765.fina" horiz-adv-x="1306" 
d="M47 -258q422 173 530 329q19 19 80 198q47 149 105 212q57 64 149 64q94 0 167 -83q67 -74 89 -178q55 -134 138 -138q86 0 86 -72q0 -74 -86 -74q-101 0 -158 88q-52 -108 -154 -108q-138 0 -291 118q-36 -110 -67 -151q-150 -203 -510 -286zM1072 211q0 75 -51 140
q-52 69 -118 69q-99 0 -156 -188q117 -110 250 -110q75 0 75 89zM853 803q0 81 76 81q79 0 79 -81q0 -79 -79 -79q-76 0 -76 79z" />
    <glyph glyph-name="glyph476" horiz-adv-x="974" 
d="M225 -627q-9 83 -60 323q-83 359 -83 451q0 71 37 115q38 44 99 42q46 -3 113 -27q79 274 247 274q96 0 169 -88q64 -77 87 -189q51 -127 140 -127q85 0 85 -73q0 -74 -85 -74q-100 0 -157 88q-50 -88 -164 -88q-99 0 -260 102q-99 55 -156 55q-30 0 -30 -48
q1 -71 58 -327q67 -285 72 -369zM738 196q0 80 -45 151q-50 77 -118 77q-96 0 -144 -193q1 -2 6 -4l5 -3q122 -83 221 -83q75 0 75 55zM508 803q0 81 76 81q80 0 80 -81q0 -79 -80 -79q-76 0 -76 79z" />
    <glyph glyph-name="uni0766" unicode="&#x766;" horiz-adv-x="1251" 
d="M47 -153q424 176 530 331q24 25 80 198q49 149 105 211q59 65 149 65q110 0 191 -112q73 -103 73 -222q0 -101 -51 -166q-51 -64 -128 -64q-142 0 -293 115q-34 -110 -69 -154q-147 -196 -509 -283zM996 228q33 0 55 25t22 63q0 75 -52 142q-53 67 -118 67
q-98 0 -154 -186q117 -111 247 -111zM864 -160q0 81 76 81q79 0 79 -81q0 -79 -79 -79q-76 0 -76 79z" />
    <glyph glyph-name="glyph478" horiz-adv-x="826" 
d="M143 207q61 66 167 66q173 0 339 -36q-29 99 -85 169q-63 78 -132 78q-87 0 -130 -180l-94 46q26 130 91 200q58 63 130 63q88 0 150 -60q162 -137 182 -350q8 -41 -35 -123q-228 45 -401 45q-120 0 -120 -94q0 -38 65 -297q68 -268 71 -319l-113 -44q-18 134 -96 425
q-47 188 -45 264q0 89 56 147zM429 -150q0 81 76 81q79 0 79 -81q0 -79 -79 -79q-76 0 -76 79z" />
    <glyph glyph-name="uni06B5.init_uniFE82.rlig" horiz-adv-x="1088" 
d="M159 8q273 27 440 115q-14 84 -190 364q-116 183 -297 438l110 81q221 -327 289 -442q174 -290 185 -390q139 91 124 436l-24 556l122 11l24 -561q10 -249 -41 -381q-60 -152 -226 -239q-185 -100 -438 -100h-34zM221 1161q-60 20 -86 20q-50 0 -60 -76l-76 28
q3 146 131 146q41 0 106 -21q66 -21 99 -21q53 0 113 54l14 -77q-40 -71 -142 -71q-38 0 -99 18zM1056 1563q-117 -144 -168 -260h-83q-63 124 -177 268l65 51q83 -99 149 -209q70 123 143 204z" />
    <glyph glyph-name="uni06B6.medi_uni0672.fina.rlig" horiz-adv-x="1178" 
d="M220 73q274 22 436 131q-14 64 -161 279q-138 207 -337 436l109 96q157 -198 276 -373q187 -275 205 -378q117 84 109 283l-22 620l122 10l25 -669q8 -215 45 -286t143 -76q88 0 88 -72q0 -74 -88 -74q-245 0 -291 273q-65 -148 -239 -233q-157 -78 -342 -78h-34z
M208 1119q-34 -14 -58 -14q-22 0 -63.5 38t-85.5 -39v87q18 46 69 46q24 0 45 -30.5t69 -11.5q-52 37 -52 88q0 58 44 91q41 31 103 31q83 0 123 -37l-22 -66q-42 32 -104 32q-33 0 -54 -16q-19 -16 -19 -36q0 -33 35 -54q36 -20 91 -20h95l-28 -73h-94q-67 0 -94 -16z
M983 1400q0 -87 -83 -87q-80 0 -80 87q0 86 80 86q83 0 83 -86z" />
    <glyph glyph-name="comma" unicode="," horiz-adv-x="334" 
d="M281 204q-72 -252 -156 -394l-99 -11q68 184 95 389z" />
    <glyph glyph-name="semicolon" unicode=";" horiz-adv-x="438" 
d="M77 -201q65 179 98 389l157 16q-72 -252 -156 -394zM173 518q-26 28 -26 70q0 46 28 74q26 28 69 28q95 0 95 -102q0 -42 -27 -70q-27 -30 -70 -30q-42 0 -69 30z" />
    <glyph glyph-name="colon" unicode=":" horiz-adv-x="464" 
d="M175 451q-27 29 -27 71q0 45 28 73q26 29 70 29q93 0 95 -102q0 -42 -27 -71q-27 -30 -71 -30q-41 0 -68 30zM176 156q26 29 70 29q93 0 95 -102q0 -43 -27 -72t-71 -29q-42 0 -68 29q-27 29 -27 72q0 44 28 73z" />
    <glyph glyph-name="period" unicode="." horiz-adv-x="334" 
d="M112 157q26 29 70 29q42 0 68 -29q27 -28 27 -74q0 -43 -27 -72t-71 -29q-42 0 -68 29q-27 29 -27 72q0 46 28 74z" />
    <glyph glyph-name="ellipsis" unicode="&#x2026;" horiz-adv-x="1620" 
d="M201 157q26 29 67 29q97 0 97 -103q0 -44 -27 -72q-26 -29 -70 -29q-42 0 -68 29q-27 29 -27 72q0 46 28 74zM740 157q27 29 70 29q93 0 96 -103q0 -43 -27 -72q-28 -29 -71 -29q-42 0 -69 29q-26 29 -26 72q0 46 27 74zM1280 157q27 29 70 29q42 0 69 -29q26 -28 26 -74
q0 -43 -26 -72q-27 -29 -70 -29q-42 0 -70 29q-27 29 -27 72q0 46 28 74z" />
    <glyph glyph-name="exclam" unicode="!" horiz-adv-x="476" 
d="M127 1093h156l-23 -778h-110zM136 155q26 28 68 28q44 0 70 -28q27 -29 27 -72q0 -44 -27 -72q-26 -29 -70 -29q-42 0 -68 29q-27 29 -27 72t27 72z" />
    <glyph glyph-name="exclamdown" unicode="&#xa1;" horiz-adv-x="401" 
d="M130 458h110l24 -774h-157zM116 618q-27 29 -27 71q0 44 28 73q26 29 67 29q44 0 70 -29q27 -28 27 -73q0 -43 -27 -71q-26 -30 -70 -30q-41 0 -68 30z" />
    <glyph glyph-name="question" unicode="?" horiz-adv-x="683" 
d="M251 354q-16 138 102 280q113 136 113 222q0 137 -155 139q-99 0 -164 -52l-39 103q91 67 232 67q131 0 206 -73q66 -66 66 -167q0 -121 -141 -281q-100 -121 -90 -241l1 -40h-127zM247 156q26 29 68 29q96 0 98 -102q0 -43 -27 -72q-28 -29 -71 -29q-42 0 -68 29
q-27 29 -27 72q0 44 27 73z" />
    <glyph glyph-name="questiondown" unicode="&#xbf;" horiz-adv-x="666" 
d="M305 617q-28 29 -28 72q0 44 28 73t70 29t70 -29q26 -28 26 -73q0 -43 -26 -72q-28 -29 -70 -29q-43 0 -70 29zM220 182q98 119 92 239l-1 41h126l3 -42q16 -141 -101 -280q-113 -134 -113 -223q0 -136 154 -139q97 0 165 50l37 -102q-92 -65 -232 -65q-130 0 -204 73
q-66 65 -66 165q0 120 140 283z" />
    <glyph glyph-name="quoteleft" unicode="&#x2018;" horiz-adv-x="333" 
d="M56 726q66 241 151 387l91 9q-65 -171 -96 -379z" />
    <glyph glyph-name="quoteright" unicode="&#x2019;" horiz-adv-x="333" 
d="M56 726q63 178 94 380l146 16q-60 -230 -151 -384z" />
    <glyph glyph-name="quotedblleft" unicode="&#x201c;" horiz-adv-x="572" 
d="M56 726q61 234 151 387l89 9q-66 -186 -96 -379zM296 726q66 241 151 387l89 9q-68 -191 -94 -379z" />
    <glyph glyph-name="quotedblright" unicode="&#x201d;" horiz-adv-x="572" 
d="M54 726q64 172 95 380l147 16q-66 -239 -151 -384zM294 726q64 172 96 380l145 16q-65 -239 -151 -384z" />
    <glyph glyph-name="quotesinglbase" unicode="&#x201a;" horiz-adv-x="333" 
d="M275 204q-66 -238 -151 -384l-92 -12q64 172 95 380z" />
    <glyph glyph-name="quotedblbase" unicode="&#x201e;" horiz-adv-x="575" 
d="M274 204q-60 -229 -151 -384l-91 -12q66 186 95 380zM272 -192q64 172 96 380l147 16q-64 -233 -153 -384z" />
    <glyph glyph-name="guilsinglleft" unicode="&#x2039;" horiz-adv-x="490" 
d="M77 409l228 298h116l-229 -298l231 -299h-118z" />
    <glyph glyph-name="guilsinglright" unicode="&#x203a;" horiz-adv-x="490" 
d="M300 409l-232 298h113l234 -298l-234 -299h-113z" />
    <glyph glyph-name="guillemotleft" unicode="&#xab;" horiz-adv-x="756" 
d="M77 409l228 298h116l-229 -298l231 -299h-118zM571 707h116l-229 -298l229 -299h-116l-228 299z" />
    <glyph glyph-name="guillemotright" unicode="&#xbb;" horiz-adv-x="756" 
d="M296 409l-228 298h115l229 -298l-229 -299h-115zM562 409l-230 298h114l230 -298l-229 -299h-115z" />
    <glyph glyph-name="parenleft" unicode="(" horiz-adv-x="529" 
d="M333 -228q-225 293 -225 690q2 405 225 702h114q-220 -298 -220 -702q0 -381 220 -690h-114z" />
    <glyph glyph-name="parenright" unicode=")" horiz-adv-x="527" 
d="M82 -228q218 293 218 701q0 384 -218 691h113q226 -297 226 -691q-2 -408 -226 -701h-113z" />
    <glyph glyph-name="braceleft" unicode="{" horiz-adv-x="512" 
d="M162 164q13 91 13 141q0 119 -136 119v84q136 0 136 121q0 51 -13 142t-13 164q0 213 236 213h33v-90h-29q-128 -2 -128 -139q0 -76 12 -144q12 -103 12 -130q0 -145 -117 -176v-4q117 -28 117 -177q0 -26 -12 -131q-12 -71 -12 -144q0 -138 128 -143h29v-88h-33
q-236 0 -236 221q0 73 13 161z" />
    <glyph glyph-name="braceright" unicode="}" horiz-adv-x="509" 
d="M120 -130q128 3 128 140q0 76 -11 144q-13 78 -13 130q0 145 116 176v3q-116 30 -116 178q0 53 13 130q11 71 11 146q0 137 -128 141h-29v90h34q235 0 235 -223q0 -81 -14 -160q-12 -106 -12 -141q0 -120 135 -120v-83q-135 0 -135 -121q0 -37 12 -143q14 -82 14 -164
q0 -211 -235 -211h-34v88h29z" />
    <glyph glyph-name="bracketleft" unicode="[" horiz-adv-x="519" 
d="M131 1148h297v-90h-187v-1188h187v-88h-297v1366z" />
    <glyph glyph-name="bracketright" unicode="]" horiz-adv-x="519" 
d="M276 -130v1188h-185v90h297v-1366h-297v88h185z" />
    <glyph glyph-name="bar" unicode="|" horiz-adv-x="386" 
d="M138 1216h109v-1622h-109v1622z" />
    <glyph glyph-name="slash" unicode="/" horiz-adv-x="555" 
d="M451 1110h111l-454 -1175h-109z" />
    <glyph glyph-name="hyphen" unicode="-" horiz-adv-x="492" 
d="M47 491h396v-105h-396v105z" />
    <glyph glyph-name="endash" unicode="&#x2013;" horiz-adv-x="779" 
d="M47 460h680v-97h-680v97z" />
    <glyph glyph-name="emdash" unicode="&#x2014;" horiz-adv-x="1332" 
d="M56 460h1219v-97h-1219v97z" />
    <glyph glyph-name="bullet" unicode="&#x2022;" horiz-adv-x="456" 
d="M107 303q-50 49 -50 120t50 121q49 49 118 49q72 0 122 -49q50 -50 50 -121t-50 -119q-50 -49 -122 -49q-69 0 -118 48z" />
    <glyph glyph-name="periodcentered" unicode="&#xb7;" horiz-adv-x="334" 
d="M97 354q-27 28 -27 73q0 44 27 73t71 29q41 0 67 -29q27 -29 27 -73q0 -45 -27 -73q-26 -29 -70 -29q-42 0 -68 29z" />
    <glyph glyph-name="asterisk" unicode="*" horiz-adv-x="672" 
d="M133 602l154 197v3l-240 -31v111l237 -31l1 3l-152 200l99 55l100 -226h3l100 227l96 -56l-154 -202v-2l245 32v-111l-245 30v-3l157 -196l-101 -57l-99 226h-3l-106 -228z" />
    <glyph glyph-name="dagger" unicode="&#x2020;" horiz-adv-x="810" 
d="M350 658l-280 -13v117l280 -12l-13 343h133l-12 -343l281 12v-117l-281 13l12 -739h-133z" />
    <glyph glyph-name="daggerdbl" unicode="&#x2021;" horiz-adv-x="810" 
d="M68 357l280 -13v331l-280 -12v115l280 -11l-11 326h131l-9 -326l281 11v-115l-281 12v-331l281 13v-117l-281 12l9 -333h-131l10 333l-279 -12v117z" />
    <glyph glyph-name="section" unicode="&#xa7;" horiz-adv-x="841" 
d="M568 337q60 45 60 125q0 98 -144 151q-160 57 -201 81q-74 -52 -74 -123q0 -93 172 -157q139 -47 187 -77zM177 60q98 -67 216 -67q80 0 130 35q51 36 51 98q0 56 -42 92q-43 37 -155 77q-142 49 -205 97q-79 63 -79 159q0 111 120 190q-60 48 -60 136q0 105 87 169
q85 61 213 61t224 -53l-37 -93q-80 52 -192 52q-72 0 -120 -32q-49 -33 -49 -88q0 -57 56 -94q38 -25 146 -61q130 -43 187 -92q77 -63 77 -165q0 -116 -106 -196q64 -52 64 -144q0 -118 -98 -184q-85 -58 -211 -58q-160 0 -254 67z" />
    <glyph glyph-name="paragraph" unicode="&#xb6;" horiz-adv-x="828" 
d="M374 428h-13q-111 0 -201 75q-105 89 -107 233q0 151 90 244q114 116 358 116q113 0 189 -14v-1162h-101v1077h-115v-1077h-100v508z" />
    <glyph glyph-name="A" unicode="A" horiz-adv-x="991" 
d="M410 1093h171l372 -1093h-150l-117 344h-388l-112 -344h-147zM656 454l-106 314q-23 66 -57 199h-5q-22 -99 -53 -197l-108 -316h329z" />
    <glyph glyph-name="B" unicode="B" horiz-adv-x="877" 
d="M120 1078q111 22 258 22q204 0 299 -78q94 -68 94 -195q0 -172 -186 -239v-4q91 -22 152 -84q73 -77 73 -189q0 -130 -94 -219q-108 -102 -375 -102q-123 0 -221 13v1075zM390 629q109 0 173 53q62 51 62 131q0 179 -238 179q-91 0 -124 -10v-353h127zM263 107
q39 -6 119 -6q281 0 281 212q0 106 -84 161q-76 50 -200 50h-116v-417z" />
    <glyph glyph-name="C" unicode="C" horiz-adv-x="939" 
d="M215 951q158 158 413 158q173 0 259 -47l-34 -116q-93 46 -221 46q-195 0 -309 -118q-116 -120 -116 -332q0 -203 109 -320q112 -120 310 -120q137 0 230 45l30 -113q-111 -52 -290 -52q-239 0 -385 143q-154 150 -154 411q0 256 158 415z" />
    <glyph glyph-name="D" unicode="D" horiz-adv-x="1079" 
d="M120 1078q153 22 301 22q297 0 443 -136q154 -141 154 -392q0 -267 -157 -425q-157 -157 -483 -157q-142 0 -258 13v1075zM263 112q44 -8 142 -8q226 0 346 121q119 120 119 342q1 199 -108 307q-114 115 -334 115q-82 0 -165 -15v-862z" />
    <glyph glyph-name="E" unicode="E" horiz-adv-x="795" 
d="M120 1093h592v-117h-449v-347h423v-117h-423v-396h473v-116h-616v1093z" />
    <glyph glyph-name="F" unicode="F" horiz-adv-x="786" 
d="M120 1093h588v-117h-445v-365h413v-117h-413v-494h-143v1093z" />
    <glyph glyph-name="G" unicode="G" horiz-adv-x="1047" 
d="M57 540q0 248 158 403q163 161 434 161q160 0 272 -50l-34 -115q-105 46 -242 46q-200 0 -319 -116q-119 -119 -119 -323q0 -206 114 -324q113 -117 307 -117q127 0 186 29v326h-221v114h361v-525q-157 -60 -336 -60q-257 0 -408 144q-153 147 -153 407z" />
    <glyph glyph-name="H" unicode="H" horiz-adv-x="1056" 
d="M120 1093h143v-459h529v459h140v-1093h-140v512h-529v-512h-143v1093z" />
    <glyph glyph-name="I" unicode="I" horiz-adv-x="386" 
d="M120 1093h143v-1093h-143v1093z" />
    <glyph glyph-name="J" unicode="J" horiz-adv-x="599" 
d="M25 123q50 -21 120 -21q100 0 147 56q52 64 52 217v718h142v-732q0 -379 -330 -379q-85 0 -151 25z" />
    <glyph glyph-name="K" unicode="K" horiz-adv-x="877" 
d="M120 1093h143v-527h3l88 117l333 410h174l-394 -464l427 -629h-168l-360 535l-103 -121v-414h-143v1093z" />
    <glyph glyph-name="L" unicode="L" horiz-adv-x="764" 
d="M120 1093h143v-974h467v-119h-610v1093z" />
    <glyph glyph-name="M" unicode="M" horiz-adv-x="1303" 
d="M169 1093h180l186 -530q62 -180 109 -375h6q40 171 116 376l195 529h179l68 -1093h-139l-24 480q-20 307 -18 470h-5q-48 -163 -140 -420l-189 -523h-112l-173 519q-81 232 -127 424h-3q-12 -319 -21 -481l-30 -469h-134z" />
    <glyph glyph-name="N" unicode="N" horiz-adv-x="1066" 
d="M120 1093h155l350 -553q118 -189 197 -357l3 3q-16 183 -16 448v459h133v-1093h-143l-347 554q-141 226 -203 365l-6 -1q11 -193 11 -451v-467h-134v1093z" />
    <glyph glyph-name="O" unicode="O" horiz-adv-x="1115" 
d="M191 139q-134 155 -134 401q0 251 142 411q143 159 369 159q227 0 360 -162q128 -156 128 -401q0 -262 -151 -418q-141 -147 -357 -147q-221 0 -357 157zM817 232q90 124 90 313q0 184 -85 309q-96 141 -264 141q-164 0 -261 -133q-90 -125 -90 -317q0 -193 90 -317
q98 -130 260 -130q165 0 260 134z" />
    <glyph glyph-name="P" unicode="P" horiz-adv-x="862" 
d="M120 1079q126 21 273 21q205 0 305 -90q97 -85 97 -230q0 -148 -85 -235q-110 -121 -331 -121q-67 0 -116 9v-433h-143v1079zM263 547q33 -8 115 -8q130 0 202 61q73 61 73 171q0 218 -257 218q-84 0 -133 -9v-433z" />
    <glyph glyph-name="Q" unicode="Q" horiz-adv-x="1115" 
d="M199 951q142 159 369 159q226 0 360 -162q128 -156 128 -398q0 -196 -88 -336q-83 -131 -224 -182v-7q176 -42 319 -68l-40 -118q-158 44 -419 127q-41 14 -66 16q-224 12 -354 164q-127 151 -127 394q0 251 142 411zM817 232q90 124 90 314q0 187 -86 311
q-96 138 -263 138q-166 0 -263 -137q-88 -125 -88 -315q0 -187 87 -311q97 -134 261 -134q166 0 262 134z" />
    <glyph glyph-name="R" unicode="R" horiz-adv-x="872" 
d="M120 1078q113 22 273 22q217 0 315 -88q87 -79 87 -210q0 -207 -206 -277v-4q118 -42 160 -221q58 -251 85 -300h-148q-26 50 -72 262q-24 111 -73 159q-50 49 -145 52h-133v-473h-143v1078zM407 581q112 0 178 56q67 57 67 151q0 202 -249 204q-95 0 -140 -12v-399h144z
" />
    <glyph glyph-name="S" unicode="S" horiz-adv-x="799" 
d="M103 172q111 -71 252 -71q107 0 169 52q60 50 60 134q0 137 -206 217q-291 100 -291 309q0 129 99 212q100 84 257 84q146 0 239 -52l-36 -115q-96 52 -209 52q-102 0 -158 -54q-47 -46 -47 -110q0 -74 52 -122q47 -43 166 -89q143 -56 207 -127q70 -78 70 -194
q0 -135 -95 -222q-103 -94 -287 -94q-173 0 -280 71z" />
    <glyph glyph-name="T" unicode="T" horiz-adv-x="805" 
d="M331 973h-332v120h809v-120h-334v-973h-143v973z" />
    <glyph glyph-name="U" unicode="U" horiz-adv-x="1048" 
d="M120 1093h143v-649q0 -175 72 -264q65 -82 182 -82q266 0 266 346v649h142v-639q0 -240 -118 -362q-106 -110 -295 -110q-392 0 -392 466v645z" />
    <glyph glyph-name="V" unicode="V" horiz-adv-x="902" 
d="M4 1093h154l171 -539q92 -305 116 -408h3q36 148 125 405l185 542h150l-390 -1093h-154z" />
    <glyph glyph-name="W" unicode="W" horiz-adv-x="1370" 
d="M22 1093h151l129 -553q33 -134 81 -378h4q18 114 89 380l146 551h147l133 -554q59 -249 76 -375h4q21 113 87 378l143 551h145l-309 -1093h-149l-136 569q-52 211 -73 356h-3q-23 -138 -83 -358l-154 -567h-151z" />
    <glyph glyph-name="X" unicode="X" horiz-adv-x="925" 
d="M373 553l-321 540h162l146 -256q28 -50 102 -186h4q31 66 98 186l150 256h162l-333 -532l340 -561h-164l-138 240q-64 101 -128 218h-2q-43 -90 -118 -218l-132 -240h-162z" />
    <glyph glyph-name="Y" unicode="Y" horiz-adv-x="876" 
d="M367 462l-346 631h162l153 -302q64 -126 108 -225h4q19 46 109 225l158 302h158l-364 -628v-465h-142v462z" />
    <glyph glyph-name="Z" unicode="Z" horiz-adv-x="895" 
d="M47 83l606 887v4h-554v119h737v-87l-603 -883v-4h612v-119h-798v83z" />
    <glyph glyph-name="Agrave" unicode="&#xc0;" horiz-adv-x="991" 
d="M410 1093h171l372 -1093h-150l-117 344h-388l-112 -344h-147zM656 454l-106 314q-23 66 -57 199h-5q-22 -99 -53 -197l-108 -316h329zM261 1339h171l154 -186h-127z" />
    <glyph glyph-name="Aacute" unicode="&#xc1;" horiz-adv-x="991" 
d="M410 1093h171l372 -1093h-150l-117 344h-388l-112 -344h-147zM656 454l-106 314q-23 66 -57 199h-5q-22 -99 -53 -197l-108 -316h329zM560 1339h169l-194 -188h-128z" />
    <glyph glyph-name="Acircumflex" unicode="&#xc2;" horiz-adv-x="991" 
d="M410 1093h171l372 -1093h-150l-117 344h-388l-112 -344h-147zM656 454l-106 314q-23 66 -57 199h-5q-22 -99 -53 -197l-108 -316h329zM445 1335h112l171 -184h-123l-104 112h-3l-102 -112h-120z" />
    <glyph glyph-name="Atilde" unicode="&#xc3;" horiz-adv-x="991" 
d="M410 1093h171l372 -1093h-150l-117 344h-388l-112 -344h-147zM656 454l-106 314q-23 66 -57 199h-5q-22 -99 -53 -197l-108 -316h329zM277 1163q-2 82 32 129q34 46 90 46q43 0 115 -38q53 -29 78 -29q41 0 47 71h86q2 -172 -125 -172q-42 0 -110 36q-56 30 -80 30
q-43 0 -45 -73h-88z" />
    <glyph glyph-name="Adieresis" unicode="&#xc4;" horiz-adv-x="991" 
d="M410 1093h171l372 -1093h-150l-117 344h-388l-112 -344h-147zM656 454l-106 314q-23 66 -57 199h-5q-22 -99 -53 -197l-108 -316h329zM291 1191q-24 25 -24 59q0 33 25 58q24 24 58 24t56 -23q22 -25 22 -59q0 -35 -21 -59q-22 -24 -57 -24q-36 0 -59 24zM591 1191
q-22 24 -22 59q0 33 24 58q23 24 57 24t57 -23q25 -25 25 -59q0 -35 -23 -59t-59 -24t-59 24z" />
    <glyph glyph-name="Aring" unicode="&#xc5;" horiz-adv-x="991" 
d="M410 1093h171l372 -1093h-150l-117 344h-388l-112 -344h-147zM656 454l-106 314q-23 66 -57 199h-5q-22 -99 -53 -197l-108 -316h329zM373 1177q-46 40 -46 102q0 61 46 102q46 42 121 42t121 -41q45 -40 45 -101q0 -64 -46 -105q-45 -41 -117 -41q-77 0 -124 42z
M575 1279q0 32 -20 56q-23 27 -61 27q-36 0 -59 -27q-21 -23 -21 -54q0 -32 20 -58q23 -26 60 -26q81 0 81 82z" />
    <glyph glyph-name="AE" unicode="&#xc6;" horiz-adv-x="1275" 
d="M499 1093h684v-117h-464l40 -350h407v-117h-390l50 -393h400l-1 -116h-522l-48 385h-335l-175 -385h-146zM640 500l-36 313q-18 138 -20 178h-7q-27 -74 -69 -172l-142 -319h274z" />
    <glyph glyph-name="Ccedilla" unicode="&#xc7;" horiz-adv-x="939" 
d="M886 34q-111 -52 -289 -52l-38 -63q114 -24 114 -122q0 -65 -52 -101q-45 -30 -115 -30q-66 0 -115 28l23 72q39 -21 91 -21q67 0 67 49q0 56 -124 70l67 123q-206 25 -329 165q-129 147 -129 384q0 256 158 415q158 158 413 158q173 0 259 -47l-34 -116q-93 46 -221 46
q-195 0 -309 -118q-116 -120 -116 -332q0 -203 109 -320q112 -120 310 -120q137 0 230 45z" />
    <glyph glyph-name="Egrave" unicode="&#xc8;" horiz-adv-x="795" 
d="M120 1093h592v-117h-449v-347h423v-117h-423v-396h473v-116h-616v1093zM194 1339h172l154 -186h-130z" />
    <glyph glyph-name="Eacute" unicode="&#xc9;" horiz-adv-x="795" 
d="M120 1093h592v-117h-449v-347h423v-117h-423v-396h473v-116h-616v1093zM485 1339h170l-195 -188h-127z" />
    <glyph glyph-name="Ecircumflex" unicode="&#xca;" horiz-adv-x="795" 
d="M120 1093h592v-117h-449v-347h423v-117h-423v-396h473v-116h-616v1093zM358 1335h112l172 -184h-125l-102 112h-4l-103 -112h-118z" />
    <glyph glyph-name="Edieresis" unicode="&#xcb;" horiz-adv-x="795" 
d="M120 1093h592v-117h-449v-347h423v-117h-423v-396h473v-116h-616v1093zM202 1195q-22 23 -22 58q0 34 24 58q23 24 59 24q32 0 55 -24q23 -23 23 -58q0 -34 -23 -58q-22 -25 -57 -25q-36 0 -59 25zM502 1195q-22 23 -22 58q0 34 25 58q24 24 57 24q35 0 58 -24
q22 -23 22 -58t-22 -58q-23 -25 -59 -25q-35 0 -59 25z" />
    <glyph glyph-name="Igrave" unicode="&#xcc;" horiz-adv-x="386" 
d="M122 1093h143v-1093h-143v1093zM-39 1339h174l152 -186h-129z" />
    <glyph glyph-name="Iacute" unicode="&#xcd;" horiz-adv-x="386" 
d="M121 1093h143v-1093h-143v1093zM256 1339h169l-193 -188h-129z" />
    <glyph glyph-name="Icircumflex" unicode="&#xce;" horiz-adv-x="386" 
d="M121 1093h143v-1093h-143v1093zM135 1335h112l172 -184h-123l-104 112h-3l-102 -112h-120z" />
    <glyph glyph-name="Idieresis" unicode="&#xcf;" horiz-adv-x="386" 
d="M120 1093h143v-1093h-143v1093zM-16 1195q-22 23 -22 58q0 34 23 58q25 24 60 24q32 0 56 -24q22 -23 22 -58q0 -34 -22 -58q-24 -25 -58 -25q-36 0 -59 25zM284 1195q-22 23 -22 58q0 34 24 58t58 24q35 0 57 -24q23 -23 23 -58t-22 -58q-23 -25 -59 -25t-59 25z" />
    <glyph glyph-name="Ntilde" unicode="&#xd1;" horiz-adv-x="1066" 
d="M120 1093h155l350 -553q118 -189 197 -357l3 3q-16 183 -16 448v459h133v-1093h-143l-347 554q-141 226 -203 365l-6 -1q11 -193 11 -451v-467h-134v1093zM317 1163q-2 82 34 129q32 46 88 46q43 0 115 -38q53 -29 78 -29q41 0 48 71h84q4 -172 -123 -172q-42 0 -111 36
q-55 30 -80 30q-42 0 -45 -73h-88z" />
    <glyph glyph-name="Ograve" unicode="&#xd2;" horiz-adv-x="1115" 
d="M191 139q-134 155 -134 401q0 251 142 411q143 159 369 159q227 0 360 -162q128 -156 128 -401q0 -262 -151 -418q-141 -147 -357 -147q-221 0 -357 157zM817 232q90 124 90 313q0 184 -85 309q-96 141 -264 141q-164 0 -261 -133q-90 -125 -90 -317q0 -193 90 -317
q98 -130 260 -130q165 0 260 134zM324 1344h172l154 -188h-128z" />
    <glyph glyph-name="Oacute" unicode="&#xd3;" horiz-adv-x="1115" 
d="M191 139q-134 155 -134 401q0 251 142 411q143 159 369 159q227 0 360 -162q128 -156 128 -401q0 -262 -151 -418q-141 -147 -357 -147q-221 0 -357 157zM817 232q90 124 90 313q0 184 -85 309q-96 141 -264 141q-164 0 -261 -133q-90 -125 -90 -317q0 -193 90 -317
q98 -130 260 -130q165 0 260 134zM620 1344h168l-195 -188h-126z" />
    <glyph glyph-name="Ocircumflex" unicode="&#xd4;" horiz-adv-x="1115" 
d="M191 139q-134 155 -134 401q0 251 142 411q143 159 369 159q227 0 360 -162q128 -156 128 -401q0 -262 -151 -418q-141 -147 -357 -147q-221 0 -357 157zM817 232q90 124 90 313q0 184 -85 309q-96 141 -264 141q-164 0 -261 -133q-90 -125 -90 -317q0 -193 90 -317
q98 -130 260 -130q165 0 260 134zM499 1341h111l173 -185h-124l-102 112h-4l-104 -112h-118z" />
    <glyph glyph-name="Otilde" unicode="&#xd5;" horiz-adv-x="1115" 
d="M191 139q-134 155 -134 401q0 251 142 411q143 159 369 159q227 0 360 -162q128 -156 128 -401q0 -262 -151 -418q-141 -147 -357 -147q-221 0 -357 157zM817 232q90 124 90 313q0 184 -85 309q-96 141 -264 141q-164 0 -261 -133q-90 -125 -90 -317q0 -193 90 -317
q98 -130 260 -130q165 0 260 134zM334 1166q-2 82 32 130q33 45 90 45q43 0 115 -38q58 -29 78 -29q41 0 46 71h85q5 -171 -123 -171q-43 0 -110 35q-57 30 -80 30q-42 0 -47 -73h-86z" />
    <glyph glyph-name="Odieresis" unicode="&#xd6;" horiz-adv-x="1115" 
d="M191 139q-134 155 -134 401q0 251 142 411q143 159 369 159q227 0 360 -162q128 -156 128 -401q0 -262 -151 -418q-141 -147 -357 -147q-221 0 -357 157zM817 232q90 124 90 313q0 184 -85 309q-96 141 -264 141q-164 0 -261 -133q-90 -125 -90 -317q0 -193 90 -317
q98 -130 260 -130q165 0 260 134zM347 1195q-23 24 -23 58t24 58q25 24 59 24q33 0 56 -24q22 -23 22 -58t-21 -58q-22 -25 -57 -25t-60 25zM648 1195q-22 24 -22 58t24 58q23 24 58 24q33 0 56 -24q22 -23 22 -58t-22 -58q-23 -25 -59 -25q-34 0 -57 25z" />
    <glyph glyph-name="Oslash" unicode="&#xd8;" horiz-adv-x="1115" 
d="M201 136q-144 154 -144 406q0 254 144 413q142 155 360 155q152 0 273 -85l85 114l84 -60l-88 -123q141 -150 141 -400q0 -272 -151 -430q-138 -144 -347 -144q-155 0 -276 88l-96 -127l-80 64zM284 256l480 665q-90 76 -206 76q-169 0 -267 -139q-90 -125 -90 -311
q0 -151 80 -291h3zM352 174q83 -79 205 -79q164 0 262 136q92 127 92 320q0 160 -76 282l-4 1z" />
    <glyph glyph-name="OE" unicode="&#x152;" horiz-adv-x="1448" 
d="M210 960q148 150 390 150q92 0 227 -17h537v-117h-451v-349h425v-116h-425v-395h475v-116h-572q-140 -18 -229 -18q-247 0 -391 161q-139 153 -139 396q0 264 153 421zM313 222q110 -124 300 -124q98 0 159 21v852q-70 24 -173 24q-181 0 -288 -125q-104 -123 -104 -325
q0 -203 106 -323z" />
    <glyph glyph-name="Scaron" unicode="&#x160;" horiz-adv-x="799" 
d="M103 172q111 -71 252 -71q107 0 169 52q60 50 60 134q0 137 -206 217q-291 100 -291 309q0 129 99 212q100 84 257 84q146 0 239 -52l-36 -115q-96 52 -209 52q-102 0 -158 -54q-47 -46 -47 -110q0 -74 52 -122q47 -43 166 -89q143 -56 207 -127q70 -78 70 -194
q0 -135 -95 -222q-103 -94 -287 -94q-173 0 -280 71zM188 1341h123l105 -114h4l103 114h119l-167 -185h-116z" />
    <glyph glyph-name="Ugrave" unicode="&#xd9;" horiz-adv-x="1048" 
d="M120 1093h143v-649q0 -175 72 -264q65 -82 182 -82q266 0 266 346v649h142v-639q0 -240 -118 -362q-106 -110 -295 -110q-392 0 -392 466v645zM296 1339h173l153 -186h-127z" />
    <glyph glyph-name="Uacute" unicode="&#xda;" horiz-adv-x="1048" 
d="M120 1093h143v-649q0 -175 72 -264q65 -82 182 -82q266 0 266 346v649h142v-639q0 -240 -118 -362q-106 -110 -295 -110q-392 0 -392 466v645zM590 1339h171l-195 -188h-128z" />
    <glyph glyph-name="Ucircumflex" unicode="&#xdb;" horiz-adv-x="1048" 
d="M120 1093h143v-649q0 -175 72 -264q65 -82 182 -82q266 0 266 346v649h142v-639q0 -240 -118 -362q-106 -110 -295 -110q-392 0 -392 466v645zM475 1335h112l171 -184h-123l-103 112h-3l-103 -112h-120z" />
    <glyph glyph-name="Udieresis" unicode="&#xdc;" horiz-adv-x="1048" 
d="M120 1093h143v-649q0 -175 72 -264q65 -82 182 -82q266 0 266 346v649h142v-639q0 -240 -118 -362q-106 -110 -295 -110q-392 0 -392 466v645zM316 1195q-22 24 -22 58t23 58q25 24 59 24q33 0 57 -24q21 -23 21 -58t-21 -58q-23 -25 -57 -25q-35 0 -60 25zM618 1195
q-23 23 -23 58q0 34 24 58q23 24 57 24t58 -24q23 -23 23 -58t-22 -58q-23 -25 -59 -25t-58 25z" />
    <glyph glyph-name="Yacute" unicode="&#xdd;" horiz-adv-x="876" 
d="M367 462l-346 631h162l153 -302q64 -126 108 -225h4q19 46 109 225l158 302h158l-364 -628v-465h-142v462zM515 1331h171l-195 -190h-128z" />
    <glyph glyph-name="Ydieresis" unicode="&#x178;" horiz-adv-x="876" 
d="M367 462l-346 631h162l153 -302q64 -126 108 -225h4q19 46 109 225l158 302h158l-364 -628v-465h-142v462zM244 1184q-24 23 -24 58q0 34 24 58t60 24q32 0 54 -24q23 -24 23 -58q0 -35 -22 -58q-23 -25 -58 -25q-34 0 -57 25zM543 1184q-22 23 -22 58q0 32 24 58
q25 24 58 24q34 0 56 -24q24 -23 24 -58t-23 -58q-23 -25 -58 -25q-37 0 -59 25z" />
    <glyph glyph-name="Zcaron" unicode="&#x17d;" horiz-adv-x="895" 
d="M47 83l606 887v4h-554v119h737v-87l-603 -883v-4h612v-119h-798v83zM237 1335h123l105 -112h3l101 112h120l-165 -184h-119z" />
    <glyph glyph-name="Eth" unicode="&#xd0;" horiz-adv-x="1087" 
d="M131 498h-133v113h133v471q153 22 300 22q301 0 444 -137q154 -138 154 -395q0 -268 -158 -426q-160 -159 -482 -159q-142 0 -258 13v498zM274 109q48 -7 142 -7q227 0 347 121q118 121 118 346q0 201 -109 310q-115 113 -333 113q-82 0 -165 -15v-366h291v-113h-291
v-389z" />
    <glyph glyph-name="Thorn" unicode="&#xde;" horiz-adv-x="859" 
d="M120 1093h141v-231q73 9 156 9q186 0 288 -90q90 -81 90 -212q0 -167 -118 -259q-109 -86 -293 -86q-82 0 -123 8v-232h-141v1093zM261 347q43 -10 122 -10q129 0 200 59q70 57 70 158q0 205 -249 205q-78 0 -143 -9v-403z" />
    <glyph glyph-name="a" unicode="a" horiz-adv-x="781" 
d="M178 424q123 76 350 74v17q0 182 -178 182q-114 0 -205 -59l-34 95q110 69 260 69q298 0 298 -322v-292q0 -113 11 -188h-128l-13 99h-3q-85 -117 -240 -117q-111 0 -179 70q-61 64 -61 155q0 143 122 217zM333 88q143 0 192 130q6 30 6 45v137q-332 3 -332 -176
q0 -136 134 -136z" />
    <glyph glyph-name="b" unicode="b" horiz-adv-x="922" 
d="M109 0q7 71 7 201v950h143v-493h3q82 144 267 144q146 0 238 -110q93 -114 92 -290q0 -198 -111 -316q-98 -104 -240 -104q-178 0 -265 147h-3l-6 -129h-125zM479 95q111 0 175 83q63 82 63 219q0 125 -59 205q-66 87 -177 87q-73 0 -132 -47q-62 -48 -83 -128
q-7 -45 -7 -60v-139q0 -31 5 -52q47 -168 215 -168z" />
    <glyph glyph-name="c" unicode="c" horiz-adv-x="725" 
d="M174 683q118 118 306 118q119 0 199 -41l-32 -109q-72 36 -166 36q-130 0 -206 -87q-71 -82 -71 -209q0 -134 79 -215q75 -78 195 -78q81 0 174 36l24 -105q-90 -47 -225 -47q-177 0 -285 110q-106 110 -106 290q0 184 114 301z" />
    <glyph glyph-name="d" unicode="d" horiz-adv-x="914" 
d="M165 689q99 113 249 113q168 0 236 -119h3v468h141v-950q0 -94 6 -201h-126l-7 134h-4q-73 -152 -265 -152q-145 0 -240 110q-97 112 -97 289q-1 190 104 308zM264 182q63 -87 173 -87q73 0 131 47q58 46 78 125q7 27 7 62v136q0 34 -7 61q-16 70 -71 116q-57 47 -135 47
q-107 0 -173 -86q-62 -83 -62 -215q0 -126 59 -206z" />
    <glyph glyph-name="e" unicode="e" horiz-adv-x="811" 
d="M159 679q102 123 271 123q171 0 256 -130q67 -100 67 -239q0 -45 -7 -66h-550q3 -138 81 -210q71 -63 186 -63q125 0 220 40l24 -102q-107 -50 -261 -50q-179 0 -284 110q-102 107 -102 286q0 183 99 301zM614 469q2 86 -38 148q-52 81 -159 81q-99 0 -160 -77
q-48 -64 -60 -152h417z" />
    <glyph glyph-name="f" unicode="f" horiz-adv-x="473" 
d="M132 676h-110v109h110v37q0 188 91 274q75 73 190 73q76 0 124 -24l-25 -109q-42 18 -88 18q-150 0 -150 -227v-42h189v-109h-189v-676h-142v676z" />
    <glyph glyph-name="g" unicode="g" horiz-adv-x="905" 
d="M162 -165q104 -63 232 -63q253 0 253 275v87h-3q-76 -131 -250 -131q-146 0 -241 110q-93 109 -93 273q0 190 110 308q101 108 244 108q172 0 244 -136h4l6 119h125q-7 -113 -7 -216v-456q0 -258 -112 -358q-100 -94 -285 -94q-162 0 -263 63zM263 194q63 -84 173 -84
q148 0 198 148q11 33 11 76v141q0 33 -8 65q-47 150 -201 150q-102 0 -167 -79q-65 -82 -65 -218q0 -121 59 -199z" />
    <glyph glyph-name="h" unicode="h" horiz-adv-x="898" 
d="M117 1151h141v-489h3q39 64 104 100q70 40 144 40q104 0 178 -66q96 -89 96 -271v-465h-141v451q0 233 -181 233q-143 0 -191 -142q-12 -30 -12 -69v-473h-141v1151z" />
    <glyph glyph-name="i" unicode="i" horiz-adv-x="379" 
d="M117 785h140v-785h-140v785zM122 943q-23 24 -23 62q0 37 25 63q26 26 64 26q87 0 87 -89q2 -38 -23 -62q-26 -25 -67 -25q-38 0 -63 25z" />
    <glyph glyph-name="j" unicode="j" horiz-adv-x="393" 
d="M137 785h140v-715q0 -224 -93 -323q-87 -89 -244 -89l-14 111q111 9 155 60q56 66 56 294v662zM141 944q-23 25 -22 61q-1 37 24 63q26 26 66 26q37 0 62 -26q23 -25 23 -63q0 -87 -91 -87q-38 0 -62 26z" />
    <glyph glyph-name="k" unicode="k" horiz-adv-x="758" 
d="M116 1151h143v-727h3q32 46 68 90l232 271h171l-302 -323l344 -462h-172l-271 376l-73 -81v-295h-143v1151z" />
    <glyph glyph-name="l" unicode="l" horiz-adv-x="380" 
d="M117 1151h141v-1151h-141v1151z" />
    <glyph glyph-name="m" unicode="m" horiz-adv-x="1352" 
d="M117 572q0 80 -7 213h125l6 -127h3q85 144 248 144t223 -157h3q35 63 88 102q74 55 173 55q100 0 167 -67q91 -90 91 -273v-462h-140v442q0 242 -170 242q-123 0 -169 -127q-13 -45 -13 -73v-484h-137v470q0 96 -43 154q-43 60 -121 60q-130 0 -179 -141q-9 -31 -9 -70
v-473h-139v572z" />
    <glyph glyph-name="n" unicode="n" horiz-adv-x="898" 
d="M117 572q0 80 -7 213h126l7 -130h4q79 147 260 147q104 0 178 -66q98 -88 98 -267v-469h-141v451q0 233 -182 233q-145 0 -192 -145q-11 -31 -11 -67v-472h-140v572z" />
    <glyph glyph-name="o" unicode="o" horiz-adv-x="889" 
d="M175 694q110 108 276 108t271 -110q105 -114 105 -300q0 -201 -129 -313q-110 -97 -266 -97q-159 0 -263 109q-109 113 -109 298q0 191 115 305zM265 180q65 -92 177 -92t179 92q62 85 62 211q0 119 -54 202q-66 101 -187 101q-120 0 -185 -100q-53 -83 -53 -205
q0 -125 61 -209z" />
    <glyph glyph-name="p" unicode="p" horiz-adv-x="922" 
d="M259 -321h-143v850q0 156 -7 256h130l6 -134h4q93 151 278 151q144 0 238 -109q94 -112 94 -290q0 -200 -108 -315q-99 -106 -246 -106q-169 0 -243 123h-3v-426zM343 139q59 -47 136 -47q111 0 175 85q63 82 63 220q0 124 -61 205q-64 85 -172 85q-75 0 -135 -48
q-62 -48 -82 -127q-8 -35 -8 -58v-135q0 -34 5 -57q20 -77 79 -123z" />
    <glyph glyph-name="q" unicode="q" horiz-adv-x="910" 
d="M175 702q100 100 240 100q174 0 240 -136h3l7 119h134q-6 -133 -6 -216v-890h-141v443h-4q-76 -140 -258 -140q-138 0 -232 109q-98 113 -98 288q0 205 115 323zM262 183q62 -88 174 -88q153 0 205 154q11 38 11 70v148q0 35 -7 58q-16 69 -70 114q-57 50 -136 50
q-107 0 -172 -85q-63 -82 -63 -216q0 -126 58 -205z" />
    <glyph glyph-name="r" unicode="r" horiz-adv-x="529" 
d="M116 540q0 145 -7 245h126l5 -156h5q60 173 219 173q21 0 41 -4v-135q-23 5 -49 5q-74 0 -126 -52q-50 -50 -66 -132q-5 -25 -5 -66v-418h-143v540z" />
    <glyph glyph-name="s" unicode="s" horiz-adv-x="641" 
d="M98 144q90 -55 189 -55q152 0 152 117q0 89 -145 143q-209 75 -209 223q0 98 73 163q76 67 199 67q112 0 190 -48l-33 -103q-82 46 -161 46q-61 0 -97 -32q-35 -31 -35 -77q0 -76 150 -134q206 -77 206 -236q0 -105 -77 -169q-79 -67 -216 -67q-127 0 -221 56z" />
    <glyph glyph-name="t" unicode="t" horiz-adv-x="536" 
d="M148 248v428h-122v109h122v188l141 37v-225h204v-109h-204v-423q0 -152 107 -152q48 0 82 11l7 -109q-51 -21 -127 -21q-103 0 -156 60q-54 64 -54 206z" />
    <glyph glyph-name="u" unicode="u" horiz-adv-x="891" 
d="M113 785h141v-435q0 -251 174 -251q144 0 190 129q14 37 14 76v481h140v-571q0 -88 7 -214h-124l-9 129h-3q-87 -147 -261 -147q-269 0 -269 344v459z" />
    <glyph glyph-name="v" unicode="v" horiz-adv-x="779" 
d="M21 785h151l155 -441q26 -74 65 -203h4q17 64 64 203l154 441h150l-309 -785h-136z" />
    <glyph glyph-name="w" unicode="w" horiz-adv-x="1192" 
d="M28 785h144l105 -399q36 -137 59 -252h5q13 67 69 251l129 400h120l121 -394q45 -139 70 -257h5q15 100 60 257l112 394h140l-254 -785h-128l-120 375q-42 125 -70 258h-3q-23 -113 -71 -261l-126 -372h-130z" />
    <glyph glyph-name="x" unicode="x" horiz-adv-x="751" 
d="M291 400l-266 385h159l112 -169q45 -71 79 -128h4l79 129l108 168h156l-266 -379l274 -406h-161l-116 175q-33 51 -84 138h-3q-16 -29 -85 -138l-112 -175h-157z" />
    <glyph glyph-name="y" unicode="y" horiz-adv-x="763" 
d="M302 -10q12 26 12 34q0 14 -12 36l-288 725h155l172 -464q31 -88 51 -160h3l24 77q15 52 26 84l156 463h151l-214 -560q-146 -385 -269 -491q-88 -75 -175 -92l-37 120q64 20 128 67q76 68 117 161z" />
    <glyph glyph-name="z" unicode="z" horiz-adv-x="691" 
d="M28 83l355 462l103 121v3h-426v116h599l-2 -89l-350 -458q-75 -94 -101 -122v-3h459v-113h-637v83z" />
    <glyph glyph-name="agrave" unicode="&#xe0;" horiz-adv-x="781" 
d="M178 424q123 76 350 74v17q0 182 -178 182q-114 0 -205 -59l-34 95q110 69 260 69q298 0 298 -322v-292q0 -113 11 -188h-128l-13 99h-3q-85 -117 -240 -117q-111 0 -179 70q-61 64 -61 155q0 143 122 217zM333 88q143 0 192 130q6 30 6 45v137q-332 3 -332 -176
q0 -136 134 -136zM147 1124h155l154 -232h-115z" />
    <glyph glyph-name="aacute" unicode="&#xe1;" horiz-adv-x="781" 
d="M178 424q123 76 350 74v17q0 182 -178 182q-114 0 -205 -59l-34 95q110 69 260 69q298 0 298 -322v-292q0 -113 11 -188h-128l-13 99h-3q-85 -117 -240 -117q-111 0 -179 70q-61 64 -61 155q0 143 122 217zM333 88q143 0 192 130q6 30 6 45v137q-332 3 -332 -176
q0 -136 134 -136zM453 1124h156l-196 -232h-115z" />
    <glyph glyph-name="acircumflex" unicode="&#xe2;" horiz-adv-x="781" 
d="M178 424q123 76 350 74v17q0 182 -178 182q-114 0 -205 -59l-34 95q110 69 260 69q298 0 298 -322v-292q0 -113 11 -188h-128l-13 99h-3q-85 -117 -240 -117q-111 0 -179 70q-61 64 -61 155q0 143 122 217zM333 88q143 0 192 130q6 30 6 45v137q-332 3 -332 -176
q0 -136 134 -136zM326 1120h108l173 -226h-113l-112 147h-4l-109 -147h-112z" />
    <glyph glyph-name="atilde" unicode="&#xe3;" horiz-adv-x="781" 
d="M178 424q123 76 350 74v17q0 182 -178 182q-114 0 -205 -59l-34 95q110 69 260 69q298 0 298 -322v-292q0 -113 11 -188h-128l-13 99h-3q-85 -117 -240 -117q-111 0 -179 70q-61 64 -61 155q0 143 122 217zM333 88q143 0 192 130q6 30 6 45v137q-332 3 -332 -176
q0 -136 134 -136zM160 924q-5 168 123 168q36 0 113 -38q69 -34 77 -34q50 0 55 74h82q0 -172 -124 -172q-41 0 -114 41q-53 31 -79 31q-46 0 -51 -70h-82z" />
    <glyph glyph-name="adieresis" unicode="&#xe4;" horiz-adv-x="781" 
d="M178 424q123 76 350 74v17q0 182 -178 182q-114 0 -205 -59l-34 95q110 69 260 69q298 0 298 -322v-292q0 -113 11 -188h-128l-13 99h-3q-85 -117 -240 -117q-111 0 -179 70q-61 64 -61 155q0 143 122 217zM333 88q143 0 192 130q6 30 6 45v137q-332 3 -332 -176
q0 -136 134 -136zM182 949q-22 24 -22 57q0 36 22 59q24 24 59 24q33 0 57 -24q22 -24 22 -59q0 -33 -21 -57q-24 -25 -58 -25q-35 0 -59 25zM480 949q-22 24 -22 57q0 35 25 59q24 24 57 24q35 0 58 -24q22 -24 22 -59q0 -33 -22 -57q-23 -25 -59 -25q-34 0 -59 25z" />
    <glyph glyph-name="aring" unicode="&#xe5;" horiz-adv-x="781" 
d="M178 424q123 76 350 74v17q0 182 -178 182q-114 0 -205 -59l-34 95q110 69 260 69q298 0 298 -322v-292q0 -113 11 -188h-128l-13 99h-3q-85 -117 -240 -117q-111 0 -179 70q-61 64 -61 155q0 143 122 217zM333 88q143 0 192 130q6 30 6 45v137q-332 3 -332 -176
q0 -136 134 -136zM265 914q-45 42 -45 108q0 63 45 106q48 46 123 46t121 -44q45 -43 45 -107q0 -65 -47 -109q-46 -43 -119 -43q-75 0 -123 43zM469 1022q0 34 -21 59q-23 28 -62 28q-36 0 -58 -27q-20 -25 -20 -57q0 -36 20 -62q22 -28 58 -28q83 0 83 87z" />
    <glyph glyph-name="ae" unicode="&#xe6;" horiz-adv-x="1252" 
d="M179 417q124 75 350 73v32q0 54 -31 102q-49 73 -151 73q-116 0 -202 -60l-33 94q113 71 245 71q199 0 253 -165h3q87 165 274 165q160 0 243 -132q63 -100 63 -229q0 -20 -5 -63h-526q-2 -136 69 -213q67 -73 182 -73q121 0 212 45l26 -102q-99 -53 -256 -53
q-228 0 -298 175h-5q-77 -175 -290 -175q-116 0 -184 69q-61 63 -61 155q0 135 122 211zM238 122q37 -34 95 -34q148 0 191 134q8 23 8 57v114q-335 8 -335 -176q0 -60 41 -95zM1056 479q4 75 -37 140q-51 81 -146 81q-98 0 -158 -77q-48 -63 -52 -144h393z" />
    <glyph glyph-name="ccedilla" unicode="&#xe7;" horiz-adv-x="725" 
d="M676 29q-86 -42 -209 -47l-37 -63q113 -22 113 -118q0 -135 -168 -135q-67 0 -112 28l22 72q35 -21 90 -21q70 0 70 51q-3 54 -127 68l67 123q-150 21 -237 127q-88 107 -88 268q0 184 114 301q118 118 306 118q119 0 199 -41l-32 -109q-72 36 -166 36q-130 0 -206 -87
q-71 -82 -71 -209q0 -134 79 -215q75 -78 195 -78q81 0 174 36z" />
    <glyph glyph-name="egrave" unicode="&#xe8;" horiz-adv-x="811" 
d="M159 679q102 123 271 123q171 0 256 -130q67 -100 67 -239q0 -45 -7 -66h-550q3 -138 81 -210q71 -63 186 -63q125 0 220 40l24 -102q-107 -50 -261 -50q-179 0 -284 110q-102 107 -102 286q0 183 99 301zM614 469q2 86 -38 148q-52 81 -159 81q-99 0 -160 -77
q-48 -64 -60 -152h417zM213 1124h155l154 -232h-115z" />
    <glyph glyph-name="eacute" unicode="&#xe9;" horiz-adv-x="811" 
d="M159 679q102 123 271 123q171 0 256 -130q67 -100 67 -239q0 -45 -7 -66h-550q3 -138 81 -210q71 -63 186 -63q125 0 220 40l24 -102q-107 -50 -261 -50q-179 0 -284 110q-102 107 -102 286q0 183 99 301zM614 469q2 86 -38 148q-52 81 -159 81q-99 0 -160 -77
q-48 -64 -60 -152h417zM498 1124h157l-196 -232h-116z" />
    <glyph glyph-name="ecircumflex" unicode="&#xea;" horiz-adv-x="811" 
d="M159 679q102 123 271 123q171 0 256 -130q67 -100 67 -239q0 -45 -7 -66h-550q3 -138 81 -210q71 -63 186 -63q125 0 220 40l24 -102q-107 -50 -261 -50q-179 0 -284 110q-102 107 -102 286q0 183 99 301zM614 469q2 86 -38 148q-52 81 -159 81q-99 0 -160 -77
q-48 -64 -60 -152h417zM368 1120h106l174 -226h-113l-112 147h-3l-111 -147h-112z" />
    <glyph glyph-name="edieresis" unicode="&#xeb;" horiz-adv-x="811" 
d="M159 679q102 123 271 123q171 0 256 -130q67 -100 67 -239q0 -45 -7 -66h-550q3 -138 81 -210q71 -63 186 -63q125 0 220 40l24 -102q-107 -50 -261 -50q-179 0 -284 110q-102 107 -102 286q0 183 99 301zM614 469q2 86 -38 148q-52 81 -159 81q-99 0 -160 -77
q-48 -64 -60 -152h417zM223 949q-22 24 -22 57q0 35 24 59q23 24 59 24q32 0 55 -24q22 -24 22 -59q0 -33 -22 -57q-23 -25 -57 -25q-36 0 -59 25zM523 949q-22 24 -22 57q0 35 23 59q25 24 60 24q33 0 57 -24q22 -24 22 -59q0 -33 -22 -57q-24 -25 -59 -25t-59 25z" />
    <glyph glyph-name="igrave" unicode="&#xec;" horiz-adv-x="379" 
d="M118 785h141v-785h-141v785zM-50 1124h155l154 -232h-114z" />
    <glyph glyph-name="iacute" unicode="&#xed;" horiz-adv-x="379" 
d="M118 785h140v-785h-140v785zM256 1124h158l-197 -232h-116z" />
    <glyph glyph-name="icircumflex" unicode="&#xee;" horiz-adv-x="379" 
d="M118 785h141v-785h-141v785zM135 1120h106l174 -226h-114l-112 147h-3l-110 -147h-112z" />
    <glyph glyph-name="idieresis" unicode="&#xef;" horiz-adv-x="379" 
d="M116 785h142v-785h-142v785zM-20 949q-22 24 -22 57q0 36 23 59q24 24 60 24q32 0 56 -24q22 -24 22 -59q0 -33 -22 -57q-24 -25 -58 -25q-36 0 -59 25zM280 949q-22 24 -22 57q0 35 24 59q23 24 57 24q33 0 57 -24q22 -24 22 -59q0 -33 -22 -57q-24 -25 -59 -25
q-34 0 -57 25z" />
    <glyph glyph-name="ntilde" unicode="&#xf1;" horiz-adv-x="898" 
d="M117 572q0 80 -7 213h126l7 -130h4q79 147 260 147q104 0 178 -66q98 -88 98 -267v-469h-141v451q0 233 -182 233q-145 0 -192 -145q-11 -31 -11 -67v-472h-140v572zM223 924q-4 168 124 168q36 0 113 -38q68 -34 78 -34q50 0 53 74h83q0 -172 -125 -172q-39 0 -112 41
q-55 31 -81 31q-44 0 -49 -70h-84z" />
    <glyph glyph-name="ograve" unicode="&#xf2;" horiz-adv-x="889" 
d="M175 694q110 108 276 108t271 -110q105 -114 105 -300q0 -201 -129 -313q-110 -97 -266 -97q-159 0 -263 109q-109 113 -109 298q0 191 115 305zM265 180q65 -92 177 -92t179 92q62 85 62 211q0 119 -54 202q-66 101 -187 101q-120 0 -185 -100q-53 -83 -53 -205
q0 -125 61 -209zM228 1124h157l154 -232h-116z" />
    <glyph glyph-name="oacute" unicode="&#xf3;" horiz-adv-x="889" 
d="M175 694q110 108 276 108t271 -110q105 -114 105 -300q0 -201 -129 -313q-110 -97 -266 -97q-159 0 -263 109q-109 113 -109 298q0 191 115 305zM265 180q65 -92 177 -92t179 92q62 85 62 211q0 119 -54 202q-66 101 -187 101q-120 0 -185 -100q-53 -83 -53 -205
q0 -125 61 -209zM506 1124h157l-196 -232h-117z" />
    <glyph glyph-name="ocircumflex" unicode="&#xf4;" horiz-adv-x="889" 
d="M175 694q110 108 276 108t271 -110q105 -114 105 -300q0 -201 -129 -313q-110 -97 -266 -97q-159 0 -263 109q-109 113 -109 298q0 191 115 305zM265 180q65 -92 177 -92t179 92q62 85 62 211q0 119 -54 202q-66 101 -187 101q-120 0 -185 -100q-53 -83 -53 -205
q0 -125 61 -209zM387 1120h107l174 -226h-114l-112 147h-3l-110 -147h-112z" />
    <glyph glyph-name="otilde" unicode="&#xf5;" horiz-adv-x="889" 
d="M175 694q110 108 276 108t271 -110q105 -114 105 -300q0 -201 -129 -313q-110 -97 -266 -97q-159 0 -263 109q-109 113 -109 298q0 191 115 305zM265 180q65 -92 177 -92t179 92q62 85 62 211q0 119 -54 202q-66 101 -187 101q-120 0 -185 -100q-53 -83 -53 -205
q0 -125 61 -209zM217 924q-4 168 123 168q34 0 113 -38q69 -34 77 -34q50 0 55 74h83q-3 -172 -125 -172q-41 0 -113 41q-54 31 -80 31q-46 0 -50 -70h-83z" />
    <glyph glyph-name="odieresis" unicode="&#xf6;" horiz-adv-x="889" 
d="M175 694q110 108 276 108t271 -110q105 -114 105 -300q0 -201 -129 -313q-110 -97 -266 -97q-159 0 -263 109q-109 113 -109 298q0 191 115 305zM265 180q65 -92 177 -92t179 92q62 85 62 211q0 119 -54 202q-66 101 -187 101q-120 0 -185 -100q-53 -83 -53 -205
q0 -125 61 -209zM235 949q-22 24 -22 57q0 36 22 59q23 24 59 24q33 0 56 -24t23 -59q0 -33 -23 -57q-22 -25 -56 -25q-36 0 -59 25zM533 949q-22 24 -22 57q0 35 24 59q25 24 58 24q34 0 57 -24t23 -59q0 -33 -22 -57q-24 -25 -59 -25q-34 0 -59 25z" />
    <glyph glyph-name="oslash" unicode="&#xf8;" horiz-adv-x="889" 
d="M180 84q-120 115 -120 304t113 305q108 109 273 109q112 0 198 -56l70 97l64 -44l-70 -101q119 -117 119 -301q0 -201 -123 -315q-108 -100 -262 -100q-113 0 -199 56l-70 -100l-60 49zM259 195l320 452q-49 47 -138 47q-121 0 -187 -99q-57 -84 -57 -206q0 -115 58 -194
h4zM308 134q57 -46 131 -46q110 0 181 87q69 87 69 218q0 110 -58 192h-2z" />
    <glyph glyph-name="oe" unicode="&#x153;" horiz-adv-x="1398" 
d="M169 690q106 112 267 112q218 0 297 -188h3q88 188 285 188q168 0 254 -132q64 -99 64 -236q0 -46 -5 -66h-531q-2 -130 73 -205q71 -71 186 -71q104 0 210 45l27 -102q-95 -53 -255 -53q-220 0 -311 186h-4q-85 -186 -304 -186q-158 0 -260 110q-105 113 -105 296
q0 186 109 302zM269 175q68 -87 169 -87q103 0 166 85q64 84 64 219q0 123 -54 206q-63 96 -176 96q-120 0 -182 -101q-52 -84 -52 -204q0 -127 65 -214zM1201 470q2 86 -36 147q-50 81 -155 81q-97 0 -154 -76q-48 -63 -55 -152h400z" />
    <glyph glyph-name="scaron" unicode="&#x161;" horiz-adv-x="641" 
d="M98 144q90 -55 189 -55q152 0 152 117q0 89 -145 143q-209 75 -209 223q0 98 73 163q76 67 199 67q112 0 190 -48l-33 -103q-82 46 -161 46q-61 0 -97 -32q-35 -31 -35 -77q0 -76 150 -134q206 -77 206 -236q0 -105 -77 -169q-79 -67 -216 -67q-127 0 -221 56zM102 1120
h115l110 -146h3l111 146h112l-171 -226h-106z" />
    <glyph glyph-name="germandbls" unicode="&#xdf;" horiz-adv-x="887" 
d="M117 733q0 247 115 352q91 84 239 84q120 0 201 -71q87 -76 87 -204q0 -81 -39 -132q-116 -46 -116 -131q0 -55 84 -141q131 -132 131 -250q0 -116 -78 -186q-79 -72 -212 -72q-105 0 -172 32l26 111q64 -33 136 -33q75 0 119 41q40 37 40 95q0 85 -88 168
q-129 120 -129 215q0 124 147 199q14 30 14 70q0 83 -46 131q-46 46 -122 46q-196 0 -196 -314v-743h-141v733z" />
    <glyph glyph-name="ugrave" unicode="&#xf9;" horiz-adv-x="891" 
d="M113 785h141v-435q0 -251 174 -251q144 0 190 129q14 37 14 76v481h140v-571q0 -88 7 -214h-124l-9 129h-3q-87 -147 -261 -147q-269 0 -269 344v459zM222 1124h155l154 -232h-114z" />
    <glyph glyph-name="uacute" unicode="&#xfa;" horiz-adv-x="891" 
d="M113 785h141v-435q0 -251 174 -251q144 0 190 129q14 37 14 76v481h140v-571q0 -88 7 -214h-124l-9 129h-3q-87 -147 -261 -147q-269 0 -269 344v459zM526 1124h158l-196 -232h-117z" />
    <glyph glyph-name="ucircumflex" unicode="&#xfb;" horiz-adv-x="891" 
d="M113 785h141v-435q0 -251 174 -251q144 0 190 129q14 37 14 76v481h140v-571q0 -88 7 -214h-124l-9 129h-3q-87 -147 -261 -147q-269 0 -269 344v459zM390 1120h108l172 -226h-113l-112 147h-3l-111 -147h-111z" />
    <glyph glyph-name="udieresis" unicode="&#xfc;" horiz-adv-x="891" 
d="M113 785h141v-435q0 -251 174 -251q144 0 190 129q14 37 14 76v481h140v-571q0 -88 7 -214h-124l-9 129h-3q-87 -147 -261 -147q-269 0 -269 344v459zM243 949q-23 24 -23 57q0 36 23 59q24 24 60 24q33 0 55 -24t22 -59q0 -33 -22 -57q-22 -25 -57 -25t-58 25zM542 949
q-22 24 -22 57q0 35 23 59q24 24 58 24t57 -24q22 -24 22 -59q0 -33 -21 -57q-23 -25 -58 -25q-36 0 -59 25z" />
    <glyph glyph-name="yacute" unicode="&#xfd;" horiz-adv-x="763" 
d="M302 -10q12 26 12 34q0 14 -12 36l-288 725h155l172 -464q31 -88 51 -160h3l24 77q15 52 26 84l156 463h151l-214 -560q-146 -385 -269 -491q-88 -75 -175 -92l-37 120q64 20 128 67q76 68 117 161zM468 1124h157l-197 -232h-116z" />
    <glyph glyph-name="ydieresis" unicode="&#xff;" horiz-adv-x="763" 
d="M302 -10q12 26 12 34q0 14 -12 36l-288 725h155l172 -464q31 -88 51 -160h3l24 77q15 52 26 84l156 463h151l-214 -560q-146 -385 -269 -491q-88 -75 -175 -92l-37 120q64 20 128 67q76 68 117 161zM191 949q-23 24 -23 57q0 35 23 59q25 24 60 24q33 0 56 -24
q22 -23 22 -59q0 -33 -21 -57q-22 -25 -57 -25q-36 0 -60 25zM491 949q-23 24 -23 57q0 35 25 59q23 24 57 24q35 0 57 -24q23 -24 23 -59q0 -33 -22 -57q-23 -25 -59 -25q-35 0 -58 25z" />
    <glyph glyph-name="zcaron" unicode="&#x17e;" horiz-adv-x="691" 
d="M28 83l355 462l103 121v3h-426v116h599l-2 -89l-350 -458q-75 -94 -101 -122v-3h459v-113h-637v83zM140 1120h115l110 -146h3l111 146h112l-171 -226h-107z" />
    <glyph glyph-name="eth" unicode="&#xf0;" horiz-adv-x="876" 
d="M268 174q66 -86 163 -86q106 0 171 86q63 84 63 218q0 151 -55 219q-68 76 -174 76q-114 0 -179 -102q-53 -85 -53 -200q0 -126 64 -211zM171 677q103 107 250 108q110 0 184 -68l2 3q-69 117 -190 209l-231 -107l-31 70l189 89q-65 46 -171 97l63 89q128 -58 230 -131
l207 99l34 -71l-172 -82q135 -110 205 -257q70 -140 70 -315q0 -211 -119 -327q-105 -101 -260 -101q-162 0 -265 109q-106 111 -106 291q0 181 111 295z" />
    <glyph glyph-name="thorn" unicode="&#xfe;" horiz-adv-x="922" 
d="M259 -321h-143v1407h143v-424h3q87 140 266 140q142 1 236 -108q96 -112 96 -292q0 -203 -112 -318q-99 -102 -244 -102q-160 0 -242 123h-3v-426zM484 92q104 0 168 84q66 84 66 224q0 122 -62 202q-65 85 -170 85q-156 0 -212 -154q-15 -45 -15 -79v-146q0 -32 14 -70
q54 -146 211 -146z" />
    <glyph glyph-name="ampersand" unicode="&#x26;" horiz-adv-x="978" 
d="M262 608l1 5q-91 112 -91 227q0 109 71 185q78 85 206 85q103 0 172 -63q70 -65 70 -168q0 -172 -240 -292v-5q192 -223 266 -305q73 112 106 319h127q-47 -276 -157 -403l88 -93q60 -63 96 -100h-171q-17 17 -48 49l-54 56q-135 -123 -319 -123q-154 0 -247 92
q-89 87 -89 214q0 200 213 320zM247 153q64 -64 160 -64q135 0 226 99q-208 230 -307 344q-141 -88 -141 -223q0 -94 62 -156zM564 872q0 57 -30 95q-33 46 -94 46q-65 0 -104 -48q-35 -45 -35 -111q0 -89 84 -198q179 106 179 216z" />
    <glyph glyph-name="grave" unicode="`" horiz-adv-x="485" 
d="M29 1124h155l154 -232h-114z" />
    <glyph glyph-name="acute" unicode="&#xb4;" horiz-adv-x="485" 
d="M311 1124h158l-197 -232h-116z" />
    <glyph glyph-name="circumflex" unicode="&#x2c6;" horiz-adv-x="485" 
d="M188 1120h106l174 -226h-114l-112 147h-3l-110 -147h-112z" />
    <glyph glyph-name="tilde" unicode="&#x2dc;" horiz-adv-x="485" 
d="M21 924q-4 168 123 168q37 0 115 -38q67 -34 77 -34q50 0 53 74h83q0 -172 -125 -172q-39 0 -112 41q-56 31 -81 31q-44 0 -48 -70h-85z" />
    <glyph glyph-name="dieresis" unicode="&#xa8;" horiz-adv-x="485" 
d="M34 949q-22 24 -22 57q0 36 23 59q24 24 58 24t56 -24q24 -24 24 -59q0 -33 -22 -57q-24 -25 -58 -25q-36 0 -59 25zM333 949q-23 24 -23 57q0 35 24 59q25 24 59 24q33 0 57 -24q22 -24 22 -59q0 -33 -22 -57q-24 -25 -59 -25q-34 0 -58 25z" />
    <glyph glyph-name="macron" unicode="&#xaf;" horiz-adv-x="485" 
d="M44 1051h397v-99h-397v99z" />
    <glyph glyph-name="cedilla" unicode="&#xb8;" horiz-adv-x="485" 
d="M219 3h87l-50 -84q113 -22 113 -118q0 -135 -168 -135q-67 0 -112 28l22 72q36 -21 90 -21q70 0 70 51q-2 54 -127 68z" />
    <glyph glyph-name="asciicircum" unicode="^" horiz-adv-x="965" 
d="M432 1054h101l333 -748h-114l-268 629h-6l-270 -629h-112z" />
    <glyph glyph-name="asciitilde" unicode="~" horiz-adv-x="965" 
d="M80 342q-3 116 54 182q53 61 141 61q72 0 230 -73q139 -68 201 -68q86 0 88 137h98q5 -128 -54 -192q-50 -55 -135 -55q-81 0 -234 73q-148 72 -194 72q-93 0 -97 -137h-98z" />
    <glyph glyph-name="brokenbar" unicode="&#xa6;" horiz-adv-x="386" 
d="M138 1093h109v-568h-109v568zM247 283v-568h-109v568h109z" />
    <glyph glyph-name="backslash" unicode="\" horiz-adv-x="551" 
d="M1 1110h110l443 -1175h-111z" />
    <glyph glyph-name="underscore" unicode="_" horiz-adv-x="810" 
d="M810 -122v-81h-810v81h810z" />
    <glyph glyph-name="quotesingle" unicode="'" horiz-adv-x="304" 
d="M82 1122h140l-27 -389h-88z" />
    <glyph glyph-name="quotedbl" unicode="&#x22;" horiz-adv-x="545" 
d="M82 1122h140l-27 -389h-88zM324 1122h140l-27 -389h-86z" />
    <glyph glyph-name="copyright" unicode="&#xa9;" horiz-adv-x="1097" 
d="M200 195q-143 146 -143 356q0 208 143 353q143 147 350 147q205 0 347 -147q141 -145 141 -353q0 -210 -141 -356q-142 -146 -347 -146q-207 0 -350 146zM256 240q119 -125 294 -125q172 0 289 125q118 127 118 311q0 182 -118 307q-118 124 -289 124q-175 0 -294 -125
q-118 -126 -118 -311q0 -181 118 -306zM373 761q89 82 216 82q131 0 178 -44l-20 -63q-68 38 -157 38q-110 0 -171 -66q-56 -60 -56 -162q0 -98 59 -161q62 -67 168 -67q101 0 165 42l20 -62q-76 -50 -199 -50q-138 0 -219 86q-78 80 -78 208q0 134 94 219z" />
    <glyph glyph-name="trademark" unicode="&#x2122;" horiz-adv-x="1001" 
d="M188 1020h-141v73h370v-73h-143v-368h-86v368zM475 1093h132l75 -216q10 -34 30 -112h1l30 108l78 220h126l34 -441h-87l-17 259l-4 123h-4l-19 -64q-11 -44 -18 -67l-80 -245h-91l-79 252l-31 124h-4q0 -42 -4 -123l-16 -259h-87z" />
    <glyph glyph-name="registered" unicode="&#xae;" horiz-adv-x="678" 
d="M236 967q37 9 102 9q62 0 92 -20q26 -20 26 -58q0 -44 -55 -61v-4q34 -11 46 -66q10 -49 21 -65h-66q-10 12 -21 65q-9 42 -54 42h-30v-107h-61v265zM328 852q62 0 62 40t-58 40q-21 0 -33 -3v-77h29zM145 652q-80 76 -80 189q0 111 80 189q80 77 194 77t193 -77
q78 -78 78 -189q0 -113 -78 -189q-79 -78 -193 -78t-194 78zM486 690q58 61 58 150q0 90 -59 151q-58 61 -146 61q-87 0 -147 -61q-59 -61 -59 -150t59 -151q60 -61 149 -61q86 0 145 61z" />
    <glyph glyph-name="at" unicode="@" horiz-adv-x="1194" 
d="M527 193q66 0 127 73q57 66 70 147l34 183q-37 12 -80 12q-107 0 -183 -87t-76 -205q0 -123 108 -123zM229 775q167 186 431 186q209 0 341 -133q129 -132 129 -337q0 -175 -87 -284q-81 -102 -200 -102q-54 0 -87 34q-37 38 -34 109h-6q-84 -143 -230 -143
q-72 0 -122 55q-53 57 -53 149q0 155 108 268q113 117 278 117q97 0 173 -32l-55 -295q-33 -182 49 -182q67 -1 118 77q57 85 57 218q0 182 -102 291q-107 114 -292 114q-202 0 -341 -146q-144 -152 -144 -392q0 -200 119 -323q115 -118 297 -118q141 0 246 59l26 -70
q-123 -66 -289 -66q-207 0 -346 137q-145 143 -145 371q0 259 161 438z" />
    <glyph glyph-name="ordfeminine" unicode="&#xaa;" horiz-adv-x="560" 
d="M96 469q-43 43 -43 109q0 88 84 137q88 51 242 47v16q0 32 -21 60q-32 41 -101 41q-82 0 -138 -45l-25 70q73 55 184 55q206 0 206 -230v-173q0 -68 10 -125h-97l-10 69h-4q-60 -77 -162 -77q-78 0 -125 46zM362 560q18 22 18 43v87q-220 7 -220 -106q0 -83 94 -83
q72 0 108 59z" />
    <glyph glyph-name="ordmasculine" unicode="&#xba;" horiz-adv-x="575" 
d="M102 495q-74 74 -74 191q0 122 79 199q74 74 183 74q115 0 186 -76q70 -73 70 -189q-2 -131 -85 -205q-72 -66 -175 -66q-111 0 -184 72zM394 555q43 52 43 135q0 71 -36 125q-42 62 -115 62t-114 -61q-35 -54 -35 -129q0 -77 44 -131q44 -52 105 -52q66 0 108 51z" />
    <glyph glyph-name="currency" unicode="&#xa4;" 
d="M47 224l118 115q-60 78 -60 193q0 121 63 201l-122 114l71 74l111 -122q76 67 186 67q113 0 186 -65l118 120l71 -73l-127 -115q57 -81 57 -190q0 -119 -57 -201l120 -118l-70 -71l-112 123q-73 -69 -189 -69q-115 0 -185 66l-109 -120zM541 362q62 62 62 180
q0 89 -48 153q-55 69 -142 69q-89 0 -142 -67q-51 -64 -51 -162q0 -108 63 -172q56 -54 128 -54q77 0 130 53z" />
    <glyph glyph-name="Euro" unicode="&#x20ac;" 
d="M114 406h-99v78h92v25q0 51 2 73h-94v80h107q28 165 133 276q129 134 321 134q118 0 216 -52l-33 -107q-79 46 -181 46q-130 0 -214 -90q-75 -72 -97 -207h452v-80h-467q-3 -21 -3 -68v-30h470v-78h-459q17 -138 89 -213q87 -94 229 -94q103 0 197 54l28 -103
q-93 -68 -242 -68q-205 0 -329 144q-94 105 -118 280z" />
    <glyph glyph-name="dollar" unicode="$" 
d="M144 206q103 -72 231 -72q88 0 142 46q53 43 53 111q0 119 -182 193q-270 109 -270 283q0 101 67 172q66 71 178 91v160h102v-156q120 -3 209 -58l-37 -107q-96 56 -206 56q-87 0 -133 -45q-39 -38 -39 -94q0 -60 48 -102q42 -37 153 -84q251 -100 251 -295
q0 -102 -65 -176q-70 -80 -192 -100v-169h-101v164q-152 3 -248 71z" />
    <glyph glyph-name="cent" unicode="&#xa2;" 
d="M106 529q0 156 90 266q88 109 236 134v163h102v-160q96 0 177 -40l-33 -108q-71 39 -169 39q-117 0 -189 -84q-70 -82 -70 -206q0 -131 73 -208q70 -76 180 -76q96 0 185 41l24 -102q-66 -42 -178 -48v-162h-102v163q-144 19 -232 114q-94 102 -94 274z" />
    <glyph glyph-name="sterling" unicode="&#xa3;" 
d="M88 80q185 95 185 283q0 57 -7 114h-167v104h151q-18 106 -18 175q0 142 89 229q85 87 221 87q115 0 177 -41l-31 -107q-58 32 -145 32q-178 0 -178 -202q0 -85 20 -173h233v-104h-221q10 -117 -5 -180q-27 -102 -112 -175v-3h483v-119h-675v80z" />
    <glyph glyph-name="florin" unicode="&#x192;" 
d="M40 -29q40 -20 90 -20q72 1 110 67q33 57 49 188l39 344h-148v104h161l11 102q42 348 310 348q68 -2 112 -25l-28 -103q-41 16 -84 16q-147 0 -172 -224l-13 -114h194v-104h-205l-44 -355q-20 -172 -79 -255q-69 -97 -203 -97q-78 0 -125 26z" />
    <glyph glyph-name="yen" unicode="&#xa5;" 
d="M87 365h251v116h-251v82h211l-273 491h153l166 -334q41 -84 66 -148h6q30 82 64 151l176 331h149l-290 -491h208v-82h-252v-116h252v-81h-252v-284h-133v284h-251v81z" />
    <glyph glyph-name="numbersign" unicode="#" horiz-adv-x="805" 
d="M472 413l31 235h-168l-31 -235h168zM192 316h-133v97h147l33 235h-141v96h154l42 310h94l-41 -310h170l42 310h95l-41 -310h132v-96h-146l-29 -235h137v-95h-152l-42 -318h-97l42 318h-168l-43 -318h-97z" />
    <glyph glyph-name="zero" unicode="0" 
d="M156 122q-97 144 -99 402q0 258 103 406q99 142 264 142t257 -141q91 -141 91 -392q0 -269 -96 -413q-95 -144 -270 -144q-157 0 -250 140zM629 532q0 428 -214 428q-96 0 -154 -111q-61 -118 -61 -327q0 -203 58 -317q57 -113 156 -113q215 0 215 440z" />
    <glyph glyph-name="one" unicode="1" 
d="M382 921h-3l-183 -99l-28 109l231 123h119v-1054h-136v921z" />
    <glyph glyph-name="two" unicode="2" 
d="M70 88l113 107q219 208 296 313q95 127 95 239q0 206 -207 206q-117 0 -224 -89l-45 99q125 109 298 109q158 0 246 -97q75 -84 75 -208q0 -136 -97 -277q-76 -109 -266 -291l-83 -79v-4h472v-116h-673v88z" />
    <glyph glyph-name="three" unicode="3" 
d="M106 164q104 -66 234 -66q124 0 188 68q51 57 50 135q-1 105 -85 161q-75 50 -188 50h-80v107h80q90 0 157 43q78 49 78 136q0 69 -43 111q-49 47 -142 47q-113 0 -210 -69l-37 104q110 81 275 81q147 0 229 -78q74 -70 74 -174q0 -178 -196 -249v-4q102 -18 167 -88
q68 -74 68 -181q0 -133 -97 -222q-107 -94 -287 -94q-172 0 -274 73z" />
    <glyph glyph-name="four" unicode="4" 
d="M23 381l470 673h154v-657h147v-110h-147v-287h-134v287h-490v94zM513 397v353q0 83 4 167h-4q-40 -79 -90 -157l-256 -360v-3h346z" />
    <glyph glyph-name="five" unicode="5" 
d="M102 155q102 -60 228 -60q103 0 174 62q73 66 72 169q0 234 -302 234q-54 0 -145 -13l68 507h503v-120h-401l-40 -271q48 6 85 6q133 0 227 -56q151 -88 151 -271q0 -155 -111 -257q-111 -103 -281 -103q-162 0 -263 65z" />
    <glyph glyph-name="six" unicode="6" 
d="M156 104q-102 122 -102 326q0 300 178 477q133 130 337 155q42 7 104 7v-116q-65 0 -107 -8q-158 -25 -258 -135q-89 -97 -108 -238h4q90 124 253 124q142 0 231 -94t89 -248q0 -152 -94 -259q-99 -113 -258 -113q-168 0 -269 122zM575 161q56 70 56 185q0 112 -58 177
q-58 64 -158 64q-139 0 -206 -129q-14 -30 -14 -65q3 -134 61 -216q63 -86 170 -86q93 0 149 70z" />
    <glyph glyph-name="seven" unicode="7" 
d="M606 932v3h-515v119h665v-94l-459 -960h-147z" />
    <glyph glyph-name="eight" unicode="8" 
d="M266 550v4q-168 80 -168 237q0 123 94 202q92 79 234 79q144 0 229 -81q77 -72 77 -179q0 -164 -173 -246v-5q211 -81 211 -273q0 -136 -103 -222q-100 -84 -257 -84q-158 0 -257 86q-94 79 -94 199q0 191 207 283zM258 146q60 -60 158 -60q94 0 153 54q57 52 57 134
q0 165 -231 228q-190 -52 -190 -217q-4 -82 53 -139zM594 798q0 71 -41 117q-47 55 -137 55q-84 0 -135 -51q-47 -47 -47 -118q-2 -140 201 -195q159 55 159 192z" />
    <glyph glyph-name="nine" unicode="9" 
d="M154 101q33 -3 115 4q132 16 220 102q112 101 140 281h-4q-96 -113 -251 -113q-138 0 -225 94q-84 90 -84 228q0 154 99 262q104 113 261 113q161 0 255 -121q93 -121 93 -324q0 -318 -182 -494q-121 -120 -305 -141q-71 -11 -132 -9v118zM616 592q13 29 13 53
q1 142 -51 226q-58 92 -164 92q-92 0 -151 -73q-57 -72 -57 -183q0 -100 55 -162q57 -64 148 -64q140 0 207 111z" />
    <glyph glyph-name="uni00B9" unicode="&#xb9;" horiz-adv-x="394" 
d="M172 1250l-119 -56l-18 84l153 71h96v-632h-112v533z" />
    <glyph glyph-name="uni00B2" unicode="&#xb2;" horiz-adv-x="502" 
d="M18 777l102 94q203 187 203 282q0 113 -122 113q-67 0 -136 -50l-34 73q77 67 198 67q106 0 164 -58q49 -51 49 -124q0 -131 -213 -320l-50 -45v-3h277v-89h-438v60z" />
    <glyph glyph-name="uni00B3" unicode="&#xb3;" horiz-adv-x="492" 
d="M14 752l28 81q72 -42 150 -42q70 0 110 37q34 31 33 73q0 58 -54 88q-46 26 -117 26h-45v74h46q54 0 95 24q51 27 52 78q0 83 -102 83q-77 0 -137 -44l-30 77q84 49 188 49q99 0 151 -46q46 -41 46 -105q0 -103 -124 -147v-3q67 -10 108 -53q43 -43 43 -104
q0 -79 -66 -132q-70 -58 -189 -58q-122 0 -186 44z" />
    <glyph glyph-name="onequarter" unicode="&#xbc;" horiz-adv-x="1230" 
d="M205 964h-3l-116 -56l-18 84l151 72h98v-633h-112v533zM656 232l289 401h128v-387h91v-81h-91v-165h-108v165h-309v67zM965 246v188l4 102h-3q-48 -85 -55 -95l-141 -192l2 -3h193zM836 1072h93l-616 -1090h-91z" />
    <glyph glyph-name="onehalf" unicode="&#xbd;" horiz-adv-x="1230" 
d="M184 964h-4l-118 -56l-18 84l153 72h99v-633h-112v533zM712 60l102 94q203 188 203 283q0 113 -122 113q-64 0 -137 -50l-34 72q78 69 199 69q105 0 164 -60q50 -51 50 -123q0 -133 -216 -321l-48 -45v-3h275v-89h-436v60zM806 1072h90l-615 -1090h-91z" />
    <glyph glyph-name="threequarters" unicode="&#xbe;" horiz-adv-x="1230" 
d="M75 547q72 -42 151 -42q69 0 109 37q33 31 33 74q0 57 -53 88q-46 25 -118 25h-44v76h46q53 0 95 22q51 29 52 80q0 82 -103 82q-77 0 -137 -44l-29 77q80 50 187 50q99 0 152 -47q47 -42 47 -106q0 -103 -126 -145v-4q67 -10 109 -53q42 -44 42 -104q0 -80 -65 -133
q-71 -57 -189 -57q-120 0 -188 44zM675 232l289 401h128v-387h90v-81h-90v-165h-108v165h-309v67zM984 246v188q0 54 4 102h-4q-30 -55 -55 -95l-140 -192l1 -3h194zM897 1072h91l-615 -1090h-92z" />
    <glyph glyph-name="plus" unicode="+" horiz-adv-x="965" 
d="M64 481h367v381h103v-381h367v-96h-367v-385h-103v385h-367v96z" />
    <glyph glyph-name="plusminus" unicode="&#xb1;" horiz-adv-x="965" 
d="M431 514h-367v97h367v317h103v-317h367v-97h-367v-324h-103v324zM64 95h837v-95h-837v95z" />
    <glyph glyph-name="multiply" unicode="&#xd7;" horiz-adv-x="965" 
d="M411 427l-347 354l70 71l348 -354l347 354l72 -71l-347 -354l344 -356l-69 -71l-347 354l-347 -354l-71 71z" />
    <glyph glyph-name="divide" unicode="&#xf7;" horiz-adv-x="965" 
d="M420 653q-24 25 -24 64q0 91 88 91q84 0 84 -91q0 -90 -86 -90q-38 0 -62 26zM64 481h837v-96h-837v96zM484 238q84 0 84 -91q0 -88 -86 -88q-38 0 -62 25q-24 26 -24 63q0 91 88 91z" />
    <glyph glyph-name="equal" unicode="=" horiz-adv-x="965" 
d="M64 326h837v-98h-837v98zM64 644h837v-98h-837v98z" />
    <glyph glyph-name="logicalnot" unicode="&#xac;" horiz-adv-x="965" 
d="M64 647h837v-451h-104v354h-733v97z" />
    <glyph glyph-name="less" unicode="&#x3c;" horiz-adv-x="965" 
d="M106 475l752 387v-113l-633 -316v-3l633 -318v-112l-752 386v89z" />
    <glyph glyph-name="greater" unicode="&#x3e;" horiz-adv-x="965" 
d="M106 112l638 318v3l-638 316v113l752 -385v-92l-752 -385v112z" />
    <glyph glyph-name="percent" unicode="%" horiz-adv-x="1282" 
d="M121 504q-73 87 -74 237q0 153 75 245q70 86 180 86q112 0 177 -82q68 -85 68 -233q0 -159 -76 -249q-69 -84 -178 -84q-104 0 -172 80zM433 750q0 235 -134 235q-67 0 -105 -70q-35 -65 -35 -168q-1 -103 34 -169q38 -67 103 -67q137 0 137 239zM903 1073h89l-619 -1093
h-91zM809 550q71 85 180 85q112 0 177 -81q66 -84 66 -233q0 -159 -76 -249q-68 -83 -177 -83q-104 0 -172 79q-73 86 -73 237q0 153 75 245zM880 142q38 -69 105 -69q134 0 134 240q0 237 -134 237q-66 0 -104 -70q-35 -66 -35 -169q-2 -103 34 -169z" />
    <glyph glyph-name="perthousand" unicode="&#x2030;" horiz-adv-x="1874" 
d="M121 504q-73 87 -74 237q0 153 75 245q70 86 180 86q112 0 177 -82q68 -85 68 -233q0 -159 -76 -249q-69 -84 -178 -84q-104 0 -172 80zM433 750q0 235 -134 235q-67 0 -105 -70q-35 -65 -35 -168q-1 -103 34 -169q38 -67 103 -67q137 0 137 239zM903 1073h89l-619 -1093
h-91zM809 550q71 85 180 85q112 0 177 -81q66 -84 66 -233q0 -159 -76 -249q-68 -83 -177 -83q-104 0 -172 79q-73 86 -73 237q0 153 75 245zM880 142q38 -69 105 -69q134 0 134 240q0 237 -134 237q-66 0 -104 -70q-35 -66 -35 -169q-2 -104 34 -169zM1399 550
q71 85 180 85q113 0 177 -81q66 -84 66 -233q0 -159 -75 -249q-69 -83 -176 -83q-104 0 -172 79q-73 86 -74 237q0 153 74 245zM1471 142q38 -69 103 -69q136 0 136 240q0 237 -136 237q-64 0 -102 -70q-34 -66 -34 -169q-2 -104 33 -169z" />
    <glyph glyph-name="degree" unicode="&#xb0;" horiz-adv-x="513" 
d="M105 745q-59 61 -59 147q0 93 63 156q62 65 153 65q95 0 156 -65q58 -61 58 -147q0 -95 -68 -158q-63 -60 -149 -60q-93 0 -154 62zM352 799q36 40 36 99q0 53 -29 92q-36 46 -99 46q-59 0 -94 -46q-32 -40 -32 -97q0 -56 35 -95q37 -39 91 -39t92 40z" />
    <glyph glyph-name="uni00B5" unicode="&#xb5;" horiz-adv-x="895" 
d="M116 785h143v-466q0 -220 176 -220q135 0 189 132q11 28 11 73v481h143v-569q0 -66 15 -94q17 -27 59 -30l-11 -103q-22 -7 -49 -7q-124 0 -140 140h-6q-71 -136 -224 -136q-123 0 -172 85v-96q0 -224 17 -296h-127q-24 73 -24 289v817z" />
    <glyph glyph-name="uni00A0" unicode="&#xa0;" horiz-adv-x="443" 
 />
    <glyph glyph-name="uni00AD" unicode="&#xad;" horiz-adv-x="492" 
d="M47 491h396v-105h-396v105z" />
  </font>
</defs>
</svg>
